<svg id="Layer_1" data-name="Layer 1" xmlns="http://www.w3.org/2000/svg" viewBox="0 0 480 480"><defs><style>.cls-1{fill:#eee662;}.cls-2{fill:#150200;}</style></defs><rect class="cls-1" width="480" height="480"/><path class="cls-2" d="M1067.93,493.41c.69,0,.69.28.69.55,0,1.66-.23,3.88-.92,4.15l-9.26,2.49c-1.62.56-2.32,2.22-2.32,4.43-.23,18.81,0,63.63,0,73.87-.23,12.45-.46,30.15-4.4,44.26-9.26,32.92-36.34,45.1-64.12,45.1-7.88,0-15.05-.83-19.68-2.49a3.07,3.07,0,0,1-1.62-2.49l-4.4-37.63c-.23-1.11,2.08-3,2.78-3a1.13,1.13,0,0,1,.92.55c5.1,10.51,10.88,22.69,15.75,30.43a18.15,18.15,0,0,0,5.32,5.54c2.32,1.66,6.25,2.76,10.19,2.76,16.2,0,23.15-12.45,26.16-39.28,1.39-11.62.92-30.71.46-44-.46-14.39-2.32-62.8-3.24-73-.23-3-.7-4.7-2.55-5l-14.58-2.49c-.93,0-1.39-2.49-1.39-3.87,0-.55,0-.83.69-.83Z" transform="translate(-749 -243)"/><path class="cls-2" d="M1182.75,611.27c0,32.09-25.46,54.77-70.38,54.77-9.49,0-20.37-.83-25.46-3a3.1,3.1,0,0,1-2.09-2.77l-3.47-37.62c-.23-.83,2.32-2.77,3-2.77.46,0,.69.28.93.83,4.4,9.41,8.56,19.37,13,28.22a15.13,15.13,0,0,0,5.56,6.36c3.7,3,9.49,4.43,15.74,4.43,19.91,0,35-11.62,35-29.6,0-16.6-10-26.56-33.8-37.35-24.54-11.07-36.81-24.62-36.81-45.65,0-29.05,28.7-55.88,67.13-55.88,9.5,0,18.76,1.38,22.92,3.87a2.33,2.33,0,0,1,1.62,2.49l2.78,36c0,.83-2.08,2.49-3,2.49-.46,0-.69,0-.92-.55-4.4-10-8.8-19.92-13.43-29.6a10.69,10.69,0,0,0-4.4-5c-3-1.94-6.71-3.32-12.5-3.32-16.44,0-30.56,12.73-30.56,30.15,0,14.94,8.8,23.24,28.48,34.86,21.76,11.9,40.74,24.35,40.74,48.42Z" transform="translate(-749 -243)"/></svg>